<svg id="undraw_family_vg76" xmlns="http://www.w3.org/2000/svg" width="291.914" height="304.735" viewBox="0 0 291.914 304.735">
  <g id="Group_1" data-name="Group 1" transform="translate(50.082 216.525)">
    <path id="Path_26" data-name="Path 26" d="M159.576,374.4c-.545-.918-2.9.065-3.334-.768s1.757-2.1,3.008-4.986c.226-.521,1.647-3.806.595-4.819-1.994-1.921-11.12,6.007-14.314,3.413a42.669,42.669,0,0,0-3.312-3.551c-.844-.734-1.354-1.066-1.848-.942-.7.175-.756,1.113-1.508,2.957-1.127,2.766-1.793,2.6-2.45,4.8-.487,1.638-.376,2.59-.95,2.776-.812.263-1.559-1.475-2.587-1.319-1.05.159-1.684,2.182-1.885,3.7-.376,2.842.668,4.717,1.246,6.689a16.8,16.8,0,0,1-.45,10.016l-14.37,40.487c3.172-8.308,12.358-31.081,16.218-39.544,1.114-2.443,2.345-4.921,4.871-5.9,2.432-.942,5.772-.379,10.031-1.405.5-.12,1.877-.471,2.051-1.283.144-.671-.668-1.046-.543-1.674.167-.843,1.764-.853,3.725-1.826a11.608,11.608,0,0,0,2.986-2.2c.223-.211,3.545-3.394,2.82-4.616h0Z" transform="translate(-91.761 -345.275)" fill="#f2f2f2"/>
    <path id="Path_27" data-name="Path 27" d="M88.923,412.1c-.608,0-.805,1.442-1.339,1.415S87.062,412.05,86,410.6c-.191-.261-1.393-1.906-2.194-1.682-1.518.424-.26,7.191-2.455,8.01a24.284,24.284,0,0,0-2.7.6c-.6.2-.914.357-1,.635-.116.394.328.692,1.016,1.593,1.032,1.351.758,1.63,1.651,2.589.663.712,1.163.932,1.088,1.267-.105.474-1.174.339-1.394.889s.585,1.456,1.27,1.991a8.078,8.078,0,0,0,3.643,1.319,9.566,9.566,0,0,1,4.786,3.111l15.725,18.734c-3.162-3.954-11.689-15.033-14.729-19.37-.878-1.252-1.739-2.571-1.49-4.093.24-1.465,1.479-2.943,2.2-5.329.085-.279.311-1.057-.038-1.377-.288-.264-.706.026-.979-.216-.366-.325.09-1.112.179-2.355a6.609,6.609,0,0,0-.22-2.1c-.039-.171-.643-2.719-1.452-2.716h0Z" transform="translate(-77.642 -361.668)" fill="#f2f2f2"/>
    <path id="Path_28" data-name="Path 28" d="M113.727,410.261l-.366-3.269.167-.248a6.049,6.049,0,0,0,1.174-3.328c0-.169-.007-.338-.015-.51a5.114,5.114,0,0,1,.371-2.518c.248-.551.944-1.826,1.991-1.669a1.185,1.185,0,0,1,.657.32l.074-.117a3.6,3.6,0,0,1,.833-.916,4.2,4.2,0,0,0,.7-.706c.136-.169.242-.317.331-.442a1.535,1.535,0,0,1,1.248-.819,1.639,1.639,0,0,1,1.246.947,7.88,7.88,0,0,1,.724,1.43,2.479,2.479,0,0,0,.122.281c.215.316,1.96.021,2.617-.087,1.477-.246,2.755-.459,3.281.472.377.666.1,1.547-.858,2.688a5.339,5.339,0,0,1-.9.837,1.094,1.094,0,0,1,.526.687h0c.2.792-.482,1.586-2.024,2.363a5.442,5.442,0,0,1-1.62.578,6.361,6.361,0,0,1-.908.081,1.076,1.076,0,0,1-.133.485,1.617,1.617,0,0,1-1.684.677,13.2,13.2,0,0,1-2.383-.384,5.778,5.778,0,0,0-1.5-.224c-.743.06-1.317.655-1.989,1.427l-1.679,1.962h0Z" transform="translate(-90.321 -357.104)" fill="#f2f2f2"/>
    <path id="Path_29" data-name="Path 29" d="M107.98,381.2l-3.069,1.183-.282-.1a6.048,6.048,0,0,0-3.516-.291c-.164.042-.325.093-.489.144a5.114,5.114,0,0,1-2.53.28c-.6-.1-2.006-.45-2.119-1.5a1.185,1.185,0,0,1,.143-.716l-.132-.042a3.6,3.6,0,0,1-1.1-.573,4.207,4.207,0,0,0-.86-.5c-.2-.088-.368-.153-.511-.208a1.535,1.535,0,0,1-1.109-1,1.639,1.639,0,0,1,.6-1.446,7.88,7.88,0,0,1,1.2-1.063,2.471,2.471,0,0,0,.241-.19c.251-.288-.477-1.9-.748-2.51-.613-1.366-1.143-2.548-.376-3.293.549-.534,1.472-.486,2.818.148a5.336,5.336,0,0,1,1.036.654,1.094,1.094,0,0,1,.531-.683h0c.716-.393,1.657.064,2.8,1.358a5.442,5.442,0,0,1,.97,1.421,6.368,6.368,0,0,1,.308.858,1.076,1.076,0,0,1,.5.006c.55.136.922.621,1.082,1.457a13.2,13.2,0,0,1,.233,2.4,5.778,5.778,0,0,0,.165,1.512c.247.7.968,1.107,1.885,1.562l2.324,1.126h0Z" transform="translate(-82.875 -347.51)" fill="#f2f2f2"/>
    <path id="Path_30" data-name="Path 30" d="M113.727,365.154l-.366-3.269.167-.248a6.049,6.049,0,0,0,1.174-3.328c0-.169-.007-.338-.015-.51a5.114,5.114,0,0,1,.371-2.518c.248-.551.944-1.826,1.991-1.669a1.185,1.185,0,0,1,.657.32l.074-.117a3.6,3.6,0,0,1,.833-.916,4.206,4.206,0,0,0,.7-.706c.136-.169.242-.317.331-.442a1.535,1.535,0,0,1,1.248-.819,1.638,1.638,0,0,1,1.246.947,7.878,7.878,0,0,1,.724,1.43,2.473,2.473,0,0,0,.122.281c.215.316,1.96.021,2.617-.087,1.477-.246,2.755-.459,3.281.472.377.666.1,1.547-.858,2.688a5.337,5.337,0,0,1-.9.837,1.094,1.094,0,0,1,.526.687h0c.2.792-.482,1.586-2.024,2.363a5.442,5.442,0,0,1-1.62.578,6.366,6.366,0,0,1-.908.081,1.076,1.076,0,0,1-.133.485,1.617,1.617,0,0,1-1.684.677,13.2,13.2,0,0,1-2.383-.384,5.779,5.779,0,0,0-1.5-.224c-.743.06-1.317.655-1.989,1.427l-1.679,1.962h0Z" transform="translate(-90.321 -341.093)" fill="#f2f2f2"/>
    <path id="Path_31" data-name="Path 31" d="M113.985,428.83l-.685-.429-.166-.791.166.791-.8.092c-.013-.074-.056-.245-.122-.511a114.325,114.325,0,0,1-2.357-12.916,131.685,131.685,0,0,1-1.068-14.946c-.074-5.036.164-8.848.355-11.912.144-2.311.32-4.511.492-6.655a124.448,124.448,0,0,0,.568-17.126,15.867,15.867,0,0,0-1.846-7.081,15.037,15.037,0,0,0-3.862-4.53l1.007-1.266a16.68,16.68,0,0,1,4.272,5.02,17.378,17.378,0,0,1,2.043,7.773,125.66,125.66,0,0,1-.572,17.339c-.17,2.136-.346,4.327-.489,6.628-.189,3.036-.425,6.815-.352,11.785a130.075,130.075,0,0,0,1.054,14.763A112.521,112.521,0,0,0,113.95,427.6c.188.769.227.93.035,1.234h0Z" transform="translate(-87.233 -341.311)" fill="#f2f2f2"/>
    <path id="Path_32" data-name="Path 32" d="M96.658,349.75c-.066,0-.133,0-.2-.006a5.168,5.168,0,0,1-3.789-2.448,11.3,11.3,0,0,1-1.351-3.22,20.189,20.189,0,0,1-.744-3.339,3.276,3.276,0,0,1,.088-2.085,2.467,2.467,0,0,1,1.139-1.04.913.913,0,0,1,.063-.477c.275-.674,1.008-.586,1.4-.543a3.971,3.971,0,0,0,.721.044,2.031,2.031,0,0,0,1-.336,4.494,4.494,0,0,1,1.352-.532,4.819,4.819,0,0,1,2.543.2c1.748.582,2.61,1.942,3.608,3.515a12.342,12.342,0,0,1,1.332,3.04,3.615,3.615,0,0,1,.182,2.017c-.2.772-.669,1.214-1.861,2.189a21.679,21.679,0,0,1-2.407,1.844,6.074,6.074,0,0,1-3.076,1.174Z" transform="translate(-82.194 -335.677)" fill="#f2f2f2"/>
  </g>
  <g id="Group_2" data-name="Group 2" transform="translate(139.285 284.949)">
    <path id="Path_33" data-name="Path 33" d="M217.451,458.083h4.233l2.013-16.327H217.45Z" transform="translate(-216.472 -441.755)" fill="#ffb6b6"/>
    <path id="Path_34" data-name="Path 34" d="M231.415,464.291h0a3.634,3.634,0,0,1,.2,1.2h0a1.437,1.437,0,0,1-1.437,1.437H217.071a.98.98,0,0,1-.98-.98V465.4a4.19,4.19,0,0,1,.687-3.662s1.659,1.583,4.139-.9l.731-1.325,5.293,3.871,2.934.361c.642.079,1.211-.012,1.541.544h0Z" transform="translate(-215.933 -448.059)" fill="#2f2e41"/>
  </g>
  <g id="Group_3" data-name="Group 3" transform="translate(126.385 284.949)">
    <path id="Path_35" data-name="Path 35" d="M197.451,458.083h4.233l2.013-16.327H197.45Z" transform="translate(-196.472 -441.755)" fill="#ffb6b6"/>
    <path id="Path_36" data-name="Path 36" d="M211.415,464.291h0a3.634,3.634,0,0,1,.2,1.2h0a1.437,1.437,0,0,1-1.437,1.437H197.071a.98.98,0,0,1-.98-.98V465.4a4.19,4.19,0,0,1,.687-3.662s1.659,1.583,4.139-.9l.731-1.325,5.293,3.871,2.934.361c.642.079,1.211-.012,1.541.544h0Z" transform="translate(-195.933 -448.059)" fill="#2f2e41"/>
  </g>
  <path id="Path_37" data-name="Path 37" d="M212.963,357.755l4.515,17.485-2.258,44.9-10.643.712-.645-25.847-1.29,26.608-10.966-2.281-.645-58.537Z" transform="translate(-67.809 -126.989)" fill="#2f2e41"/>
  <g id="Group_4" data-name="Group 4" transform="translate(94.544 168.649)">
    <path id="uuid-f560b4a3-9a95-4199-88c1-6c6c96ee74ab-133" d="M153.471,264.7c-1.457-2.557-3.957-3.877-5.584-2.95s-1.764,3.751-.307,6.309a7.364,7.364,0,0,0,2.352,2.562l6.31,10.754,4.984-3.068-6.749-10.276a7.364,7.364,0,0,0-1.006-3.33Z" transform="translate(-146.571 -261.455)" fill="#ffb6b6"/>
    <path id="Path_38" data-name="Path 38" d="M183.286,306.053s-5.98,8.242-9.638,5.3S149.783,275.3,149.783,275.3l8.02-4.3,25.483,35.055Z" transform="translate(-147.711 -264.843)" fill="#7892bc"/>
  </g>
  <path id="Path_39" data-name="Path 39" d="M193.032,303.366l7.74-11.611,7.74,3.225L206.578,305.3Z" transform="translate(-68.519 -103.562)" fill="#ffb6b6"/>
  <path id="Path_40" data-name="Path 40" d="M190.482,305.4l13.546-.645,9.031,2.58,1.935,47.733-27.092-2.58V327.316l-3.87-12.885Z" transform="translate(-65.324 -108.176)" fill="#7892bc"/>
  <path id="Path_41" data-name="Path 41" d="M211.782,337.424a10.57,10.57,0,0,1-.543-4.317c.346-4.127.412-12.213-3.795-15.866l-2.376-2.574c-.049-.053-.1-.1-.155-.152l3.931-9.241-2.375-1.01-3.649,8.577a10.346,10.346,0,0,0-11.539.478l-2.225-8.153-2.489.68,2.782,9.3c-.1.123-.212.237-.307.366l-1.359,1.824a10.634,10.634,0,0,1-1.092,1.244,8.27,8.27,0,0,0-2.478,5.856,10.3,10.3,0,0,1-.539,3.073l-1.616,5.049a10.18,10.18,0,0,0-.352,1.448c-.712,4.324-3.178,24.694,13.676,24.286,15.711-.38,16.745-9.947,16.654-13.124a9.512,9.512,0,0,1,.171-2.051,11.386,11.386,0,0,0-.324-5.692Z" transform="translate(-64.268 -108.002)" fill="#3f3d56"/>
  <path id="Path_42" data-name="Path 42" d="M329.365,36.017,330.835,58.7,312.36,62.94,313.647,44.6Z" transform="translate(-110.876 -12.784)" fill="#ffb6b6"/>
  <g id="Group_5" data-name="Group 5" transform="translate(190.97 266.795)">
    <path id="Path_43" data-name="Path 43" d="M334.141,445.732h-8.327l-3.962-32.12h12.291Z" transform="translate(-305.214 -413.611)" fill="#ffb6b6"/>
    <path id="Path_44" data-name="Path 44" d="M296.455,457.945h0a7.15,7.15,0,0,0-.4,2.354h0a2.826,2.826,0,0,0,2.826,2.826h25.789A1.928,1.928,0,0,0,326.6,461.2v-1.074s1.276-3.227-1.351-7.2c0,0-3.264,3.114-8.142-1.764l-1.438-2.606-10.412,7.615-5.771.71c-1.263.155-2.382-.024-3.032,1.07h0Z" transform="translate(-296.059 -426.013)" fill="#2f2e41"/>
  </g>
  <g id="Group_6" data-name="Group 6" transform="translate(213.546 266.795)">
    <path id="Path_45" data-name="Path 45" d="M369.141,445.732h-8.327l-3.962-32.12h12.291Z" transform="translate(-340.214 -413.611)" fill="#ffb6b6"/>
    <path id="Path_46" data-name="Path 46" d="M331.455,457.945h0a7.15,7.15,0,0,0-.4,2.354h0a2.826,2.826,0,0,0,2.826,2.826h25.789A1.928,1.928,0,0,0,361.6,461.2v-1.074s1.276-3.227-1.351-7.2c0,0-3.264,3.114-8.142-1.764l-1.438-2.606-10.412,7.615-5.771.71c-1.263.155-2.382-.024-3.032,1.07h0Z" transform="translate(-331.059 -426.013)" fill="#2f2e41"/>
  </g>
  <path id="Path_47" data-name="Path 47" d="M353.86,226.755s7.1,9.031,5.805,14.191-10.321,123.848-10.321,123.848l-12.9-.645L328.7,257.717l-1.991,107.077-12.2-.645L299.032,231.27Z" transform="translate(-106.145 -80.489)" fill="#2f2e41"/>
  <path id="uuid-35c49308-43d3-4982-a82f-2c4b488719d7-134" d="M262.236,256.193c-1.22,4.675-4.621,7.836-7.6,7.059s-4.4-5.2-3.177-9.873a12.093,12.093,0,0,1,2.637-5.066l5.419-19.744,9.211,2.74-6.32,19.173a12.093,12.093,0,0,1-.175,5.71Z" transform="translate(-89.104 -81.133)" fill="#ffb6b6"/>
  <circle id="Ellipse_6" data-name="Ellipse 6" cx="18.431" cy="18.431" r="18.431" transform="translate(185.051 5.194)" fill="#ffb6b6"/>
  <path id="Path_48" data-name="Path 48" d="M306.353,70.625l19.351-3.87L346.99,77.721l4.515,70.309,5.805,26.447-59.989.645,2.58-35.477-3.87-56.118Z" transform="translate(-105.08 -23.695)" fill="#9eb3c9"/>
  <path id="Path_49" data-name="Path 49" d="M287.284,95.263s-10.321-3.225-14.191,2.58S262.127,155.9,262.127,155.9l-7.1,39.347,12.9,1.935,21.286-69.019Z" transform="translate(-90.526 -33.498)" fill="#9eb3c9"/>
  <g id="Group_7" data-name="Group 7" transform="translate(233.832 51.95)">
    <path id="uuid-bde1eca8-243b-424d-9fdc-27c2181c111a-135" d="M439.57,223.594c2.1,4.35,1.563,8.961-1.206,10.3s-6.717-1.1-8.82-5.456a12.093,12.093,0,0,1-1.277-5.566l-8.677-18.544,8.789-3.886L436,219.134a12.093,12.093,0,0,1,3.57,4.46Z" transform="translate(-382.77 -123.098)" fill="#9eb3c9"/>
    <path id="Path_50" data-name="Path 50" d="M362.508,83.281s9.269-5.569,14.4-.84,24.351,53.828,24.351,53.828l16.177,36.563-12.08,4.924-36.967-62.05-5.88-32.425Z" transform="translate(-362.508 -80.537)" fill="#9eb3c9"/>
  </g>
  <path id="Path_51" data-name="Path 51" d="M278.444,470.817a.765.765,0,0,1-.768.768H.768A.765.765,0,0,1,0,470.817a.747.747,0,0,1,.206-.522H58.079a26.873,26.873,0,0,0,3.625-.245H277.677A.765.765,0,0,1,278.444,470.817Z" transform="translate(0 -166.849)" fill="#3f3d56"/>
  <path id="uuid-76bcf24f-af63-48e1-b762-2a44b8a9d8fc-136" d="M252.53,272.479c1.151-2.708,3.481-4.309,5.2-3.576s2.187,3.522,1.035,6.231a7.364,7.364,0,0,1-2.04,2.817l-5.022,11.412-5.305-2.471,5.514-10.988a7.365,7.365,0,0,1,.614-3.424Z" transform="translate(-87.463 -95.387)" fill="#ffb6b6"/>
  <circle id="Ellipse_7" data-name="Ellipse 7" cx="11.864" cy="11.864" r="11.864" transform="translate(119.659 173.038)" fill="#ffb6b6"/>
  <path id="Path_52" data-name="Path 52" d="M227.032,298.816l11.611-4.515,3.87-13.546,8.386,3.225-6.45,19.351-17.416,6.654Z" transform="translate(-80.587 -99.657)" fill="#7892bc"/>
  <path id="Path_53" data-name="Path 53" d="M194.338,292.106l7.076-5.757s-.67-8.628,1.874-9.4,5.2-3.875,5.2-3.875-4.21-9.511-11.621-8.068-5.72-.752-10.287,1.666-5.638,5.646-5.082,9.075-1.1,11.948,4.433,12.387a12.614,12.614,0,0,1,8.41,3.977Z" transform="translate(-64.376 -94.012)" fill="#2f2e41"/>
  <path id="Path_54" data-name="Path 54" d="M289.452,27.751c-1.345-2.453-.647-3.624-1.86-4.583,0,0-.488-.386-4.165-.877h0c-.351-6.015-1.326-6.819-1.326-6.819a4.352,4.352,0,0,0-4.048-.377c-2.408.89-2.324,3.235-3.924,3.555-2.209.442,3.813-3.335,3.743-7.329-.057-3.259,2.277-6.232,3.089-6s2.967-2.117,4.023-1.994c.721.084,3.779-.964,4.566-.8.859.179,3.6,1.9,3.749,1.57,1.018-2.305.827-2.983,1.585-3.605,1.342-1.1,3.314-.1,6.477.6,6.507,1.45,7.829-.628,11.084,1.113,1.644.879,2.91,3,5.373,7.2,3.446,5.873,5.168,8.809,4.922,12.053-.252,3.309-1.837,2.971-2.931,7.812-1.219,5.389.246,8.014-1.713,9.64-1.514,1.256-14.072,1.353-15.476.032-2.4-2.262,1.354-6.956-1.2-10.809-1.567-2.365-5-3.636-6.693-2.664-1.917,1.1-1.207,4.83-2.513,5.074-1.118.209-2.528-2.361-2.762-2.788Z" transform="translate(-97.133 0)" fill="#2f2e41"/>
  <g id="Group_11" data-name="Group 11" transform="translate(20.753 34.309)">
    <g id="Group_8" data-name="Group 8" transform="translate(16.62 56.312)">
      <path id="Path_55" data-name="Path 55" d="M123.553,227.565c2.567-2.169,1.886-7.2-1.523-11.233a13.219,13.219,0,0,0-4.99-3.751l-1.989-2.3L89.361,178.1s-14.227-32.021-18.426-35.48a9.9,9.9,0,0,0-9.141-1.658l-3.855,4.77,24.023,44.709,24.586,24.743,3.319,3.46a13.218,13.218,0,0,0,2.865,5.547c3.408,4.035,8.253,5.547,10.82,3.378Z" transform="translate(-57.939 -140.49)" fill="#ffb6b6"/>
      <path id="Path_56" data-name="Path 56" d="M75.9,153.017l6.438,9.442,9.242,13.678-16.606,5.745L60.314,156.723Z" transform="translate(-58.782 -144.936)" fill="#e6e6e6"/>
    </g>
    <path id="Path_57" data-name="Path 57" d="M82.267,100.8,77.6,118.572l-17.776-3.5s6.994-12.822,5.245-18.651L82.267,100.8Z" transform="translate(-41.989 -68.536)" fill="#ffb6b6"/>
    <g id="Group_9" data-name="Group 9" transform="translate(19.036 222.361)">
      <path id="Path_58" data-name="Path 58" d="M65.522,439.206h10.7l5.092-41.291H65.52Z" transform="translate(-63.046 -397.914)" fill="#ffb6b6"/>
      <path id="Path_59" data-name="Path 59" d="M100.837,454.906h0a9.191,9.191,0,0,1,.509,3.026h0a3.633,3.633,0,0,1-3.633,3.633H64.561a2.479,2.479,0,0,1-2.479-2.479v-1.38s-1.64-4.148,1.736-9.261c0,0,4.2,4,10.467-2.267l1.849-3.35,13.385,9.789,7.419.913c1.623.2,3.062-.031,3.9,1.375h0Z" transform="translate(-61.684 -413.857)" fill="#2f2e41"/>
    </g>
    <path id="Path_60" data-name="Path 60" d="M90.489,263.494,75.738,363.872H57.232l2.461-57.3,1.3-30.128-3.756-14.341a64.051,64.051,0,0,1-3.155-7.052c-1.626-4.36-2.911-9.588-1-12.067.7-.914,2.526-1.59,5-2.094a51.792,51.792,0,0,1,5.181-.738c10.944-1.083,26.512-.407,26.512-.407l.4,13.06.219,7.293.1,3.393Z" transform="translate(-39.254 -119.337)" fill="#2f2e41"/>
    <g id="Group_10" data-name="Group 10" transform="translate(0 217.892)">
      <path id="Path_61" data-name="Path 61" d="M36.29,431.838l10.591,1.556,11.044-40.111-15.631-2.3Z" transform="translate(-33.634 -390.986)" fill="#ffb6b6"/>
      <path id="Path_62" data-name="Path 62" d="M71.15,453.663h0a9.192,9.192,0,0,1,.064,3.068h0A3.633,3.633,0,0,1,67.09,459.8l-32.8-4.822a2.479,2.479,0,0,1-2.092-2.813l.2-1.366s-1.019-4.343,3.065-8.91c0,0,3.569,4.571,10.685-.72l2.317-3.045,11.819,11.632,7.207,1.983c1.577.434,3.034.415,3.656,1.927h0Z" transform="translate(-32.173 -407.717)" fill="#2f2e41"/>
    </g>
    <path id="Path_63" data-name="Path 63" d="M84.708,245.383l-2.023,17.424L71.651,299.524,53.488,359.972l-18.308-2.69,16.431-85.948L49.985,256.6s-.53-1.465-1.137-3.61c-1.206-4.243-2.718-11.153-1.054-14.677a4.12,4.12,0,0,1,.855-1.231,6.831,6.831,0,0,1,3.766-1.224c7.447-.842,22.783,1.566,29.607,2.747l2.687,6.783Z" transform="translate(-33.24 -117.966)" fill="#2f2e41"/>
    <path id="Path_64" data-name="Path 64" d="M75.825,121.826l20.108,25.353-3.609,26.433-3.093,26.9L52.8,194.971s7.868-18.942,8.742-19.816,3.07,1.285,1.535-1.543-3.284-2.828-1.827-4.285-11.365-20.4-11.365-30.6,6.12-18.359,6.12-18.359l19.816,1.457Z" transform="translate(-38.461 -77.035)" fill="#9eb3c9"/>
    <circle id="Ellipse_8" data-name="Ellipse 8" cx="13.546" cy="13.546" r="13.546" transform="translate(19.127 8.526)" fill="#ffb6b6"/>
    <path id="Path_65" data-name="Path 65" d="M66.078,101.159s2.027-16.038,2.386-20.7,6.942-11.946,6.942-11.946l4.664,3.767s3.946,0,1.256-5.74A11.571,11.571,0,0,0,73.612,59.9s-.538-7.534-9.866-6.637a17.962,17.962,0,0,0-13.454,8.431s-.538-9.507-6.458-2.511-9.328,9.866-3.05,12.2a16.568,16.568,0,0,0,10.942.538s-6.1,1.256-5.023,5.561-14.171,23.858-7.175,26.011,22.6,7.355,24.4,3.946A20.4,20.4,0,0,0,66.078,101.159Z" transform="translate(-34.039 -53.189)" fill="#2f2e41"/>
    <path id="Path_66" data-name="Path 66" d="M132.679,229.378c2.586-2.147,1.946-7.182-1.429-11.245a13.219,13.219,0,0,0-4.958-3.793l-1.97-2.313L98.9,179.625s-13.958-32.139-18.128-35.633a9.9,9.9,0,0,0-9.126-1.735l-3.9,4.737L91.4,191.9l24.378,24.948,3.29,3.488a13.218,13.218,0,0,0,2.818,5.57c3.374,4.063,8.206,5.616,10.792,3.469Z" transform="translate(-44.802 -84.647)" fill="#ffb6b6"/>
    <path id="Path_67" data-name="Path 67" d="M65.466,138.639s6.223,32.292,13.3,37.052l14.11-11s1.235-.053-1.063-2.649-1.71-8.17-1.71-8.17,1.034,1.338-1.216-.519-.155-14.631-.155-14.631l-23.269-.08Z" transform="translate(-43.99 -83.52)" fill="#9eb3c9"/>
  </g>
  <path id="Path_68" data-name="Path 68" d="M210.968,337.637a.645.645,0,0,1-.63-.509l-.709-3.295a10.912,10.912,0,0,0-20.762-1.846l-1.78,4.338a.645.645,0,1,1-1.193-.489l1.78-4.338a12.2,12.2,0,0,1,23.216,2.064l.709,3.295a.645.645,0,0,1-.495.766A.659.659,0,0,1,210.968,337.637Z" transform="translate(-65.968 -114.981)" fill="#ffb6b6"/>
  <path id="Path_69" data-name="Path 69" d="M212.482,359.563l-.058,0-23.87-2.129a.645.645,0,0,1,.115-1.285l23.87,2.129a.645.645,0,0,1-.057,1.288Z" transform="translate(-66.721 -126.417)" fill="#ffb6b6"/>
</svg>
