<svg xmlns="http://www.w3.org/2000/svg" width="331.726" height="301.337" viewBox="0 0 331.726 301.337">
  <g id="undraw_sharing_knowledge_03vp" transform="translate(0 0)">
    <path id="uuid-f8ba9176-caa4-4aaa-aa33-5402b823e72a-172" d="M265.347,103.269c3.693-3.758,8.626-4.9,11.017-2.549s1.336,7.3-2.359,11.061a13.187,13.187,0,0,1-5.246,3.357l-15.849,15.727-7.221-7.595,16.391-14.7a13.187,13.187,0,0,1,3.267-5.3Z" transform="translate(-105.902 -42.888)" fill="#ffb6b6"/>
    <path id="Path_87" data-name="Path 87" d="M175.293,82.5l16.617,36.864L218.445,105l9.5,5.04S206.25,146.3,191.4,142.175s-41.226-41.561-36.474-53.113,20.37-6.564,20.37-6.564Z" transform="translate(-66.535 -35.098)" fill="#9eb3c9"/>
    <g id="Group_14" data-name="Group 14" transform="translate(181.806 55.138)">
      <path id="uuid-070545a9-7559-45f6-9b62-076b2f028fa8-173" d="M323.523,110.55c-3.858-3.589-5.133-8.489-2.848-10.944s7.263-1.534,11.121,2.057a13.187,13.187,0,0,1,3.5,5.152l16.153,15.414-7.4,7.426-15.139-15.984a13.187,13.187,0,0,1-5.392-3.121Z" transform="translate(-319.541 -97.48)" fill="#a0616a"/>
      <path id="Path_88" data-name="Path 88" d="M413.465,112.357,382.288,145.55s-7,6.928-18.521-3.063-24.326-26.381-24.326-26.381l7.185-7.819,12.726,11.354s7.556,3.04,8.081,5.007-.943,2.781,1.417,2.151,2.407-2.037,2.555.1-1.294,4.625,1.433,2.211,3.541-.946,3.541-.946l19.927-26.4s12.876-10.182,16.578-1.055.581,11.647.581,11.647Z" transform="translate(-328.119 -96.91)" fill="#7892bc"/>
    </g>
    <g id="Group_15" data-name="Group 15" transform="translate(98.669 246.347)">
      <path id="Path_89" data-name="Path 89" d="M178.345,479.716h12.117l5.764-46.736H178.342Z" transform="translate(-175.542 -432.979)" fill="#ffb6b6"/>
      <path id="Path_90" data-name="Path 90" d="M217.736,504.284h0a10.4,10.4,0,0,1,.576,3.425h0a4.112,4.112,0,0,1-4.112,4.112H176.677a2.806,2.806,0,0,1-2.806-2.806v-1.562s-1.856-4.7,1.965-10.483c0,0,4.75,4.531,11.847-2.566l2.093-3.792,15.15,11.08,8.4,1.034c1.837.226,3.466-.035,4.411,1.557h0Z" transform="translate(-173.42 -457.822)" fill="#2f2e41"/>
    </g>
    <rect id="Rectangle_4" data-name="Rectangle 4" width="30.028" height="44.369" transform="translate(271.148 77.411) rotate(180)" fill="#2f2e41"/>
    <path id="Path_91" data-name="Path 91" d="M450.984,102.651l-1.051-12.708H435.951l-3.1,13.464Z" transform="translate(-186.577 -38.769)" fill="#a0616a"/>
    <path id="Path_92" data-name="Path 92" d="M450.984,102.651l-1.051-12.708H435.951l-3.1,13.464Z" transform="translate(-186.577 -38.769)" opacity="0.1"/>
    <path id="Path_93" data-name="Path 93" d="M178.71,70.327l.245-16.342L168.877,47.7l-10.958,13.4Z" transform="translate(-68.07 -20.562)" fill="#ffb6b6"/>
    <path id="Path_94" data-name="Path 94" d="M187.012,70.327l.653-15.935L177.179,47.7l3.562,19.721Z" transform="translate(-76.371 -20.562)" opacity="0.1"/>
    <circle id="Ellipse_14" data-name="Ellipse 14" cx="15.284" cy="15.284" r="15.284" transform="translate(238.88 24.65)" fill="#a0616a"/>
    <path id="Path_95" data-name="Path 95" d="M439.941,38.048s0-6.274,5.826-4.93,7.619,3.585,7.619,3.585,2.241,3.585,5.826,4.034,6.723,10.756,6.274,13-2.689,8.067.448,10.756,7.619,6.723,6.274,10.756-5.378,14.342-5.378,14.342,11.25,1.644,10.331,8.665a22.58,22.58,0,0,0-12.572-4.184c-7.171,0-6.274-13.009-6.274-13.009s-.448-8.055-1.793-10.3.448-14.79-6.274-21.512-10.308-11.2-10.308-11.2Z" transform="translate(-189.633 -14.194)" fill="#2f2e41"/>
    <path id="Path_96" data-name="Path 96" d="M416.979,39.563s-8.515,1.793-11.652,10.308-1.553,10.1-1.553,10.1-.694,5.128-4.5,6.925-.67,9.417-.67,9.417-.9,7.619-13,10.308,15.174,23.31,15.174,23.31-1.961-9.732,10.588-10.181-2.457-23.437-2.457-23.437l-1.345-14.79s2.689-17.031,10.756-19.271-1.345-2.689-1.345-2.689Z" transform="translate(-164.878 -17.053)" fill="#2f2e41"/>
    <circle id="Ellipse_15" data-name="Ellipse 15" cx="17.923" cy="17.923" r="17.923" transform="translate(92.749 2.662)" fill="#ffb6b6"/>
    <path id="Path_97" data-name="Path 97" d="M204.577,256.86l-16.7,113.615H166.933l2.785-64.854,1.466-34.1-4.251-16.232a72.5,72.5,0,0,1-3.571-7.982c-1.841-4.936-3.294-10.853-1.136-13.658.794-1.034,2.859-1.8,5.664-2.37a58.633,58.633,0,0,1,5.864-.835c12.388-1.226,30.008-.46,30.008-.46l.448,14.782.248,8.254.118,3.84Z" transform="translate(-69.462 -99.031)" fill="#2f2e41"/>
    <g id="Group_16" data-name="Group 16" transform="translate(27.968 233.811)">
      <path id="Path_98" data-name="Path 98" d="M57.094,452.117l10.674,5.733,27.2-38.442-15.754-8.463Z" transform="translate(-52.578 -410.946)" fill="#ffb6b6"/>
      <path id="Path_99" data-name="Path 99" d="M90.372,497.511h0a10.4,10.4,0,0,1-1.113,3.29h0a4.112,4.112,0,0,1-5.569,1.676L50.635,484.718a2.806,2.806,0,0,1-1.144-3.8l.739-1.376s.587-5.015,6.693-8.3c0,0,2.04,6.24,11.651,3.347l3.638-2.349,8.1,16.931,6.908,4.885c1.511,1.069,3.07,1.61,3.149,3.459h0Z" transform="translate(-49.157 -436.935)" fill="#2f2e41"/>
    </g>
    <path id="Path_100" data-name="Path 100" d="M164.7,253.235,155.836,271l-25.879,34.834-42.6,57.349L68.9,353.273l50.577-85.158,3.942-16.313s0-1.763.179-4.28c.35-4.98,1.4-12.917,4.528-16.028a4.664,4.664,0,0,1,1.385-.981c.941-.424,2.5-.322,4.479.147,8.25,1.971,23.647,10.437,30.456,14.322l.248,8.254Z" transform="translate(-29.699 -99.245)" fill="#2f2e41"/>
    <g id="Group_17" data-name="Group 17" transform="translate(227.081 254.325)">
      <path id="Path_101" data-name="Path 101" d="M451.074,487.185H440.656L435.7,447h15.376Z" transform="translate(-414.885 -447)" fill="#a0616a"/>
      <path id="Path_102" data-name="Path 102" d="M399.612,508.309h0a8.945,8.945,0,0,0-.5,2.945h0a3.536,3.536,0,0,0,3.536,3.536h32.263a2.412,2.412,0,0,0,2.412-2.412v-1.343s1.6-4.037-1.69-9.013c0,0-4.084,3.9-10.187-2.206l-1.8-3.26-13.026,9.527-7.22.889c-1.58.194-2.98-.03-3.793,1.338h0Z" transform="translate(-399.116 -468.36)" fill="#2f2e41"/>
    </g>
    <g id="Group_18" data-name="Group 18" transform="translate(271.215 245.086)">
      <path id="Path_103" data-name="Path 103" d="M512.475,467.909l-9.63,3.973-19.91-35.255,14.214-5.864Z" transform="translate(-479.38 -430.762)" fill="#a0616a"/>
      <path id="Path_104" data-name="Path 104" d="M476.7,504.418h0a8.945,8.945,0,0,0,.665,2.911h0a3.536,3.536,0,0,0,4.617,1.92L511.8,496.943a2.412,2.412,0,0,0,1.31-3.15l-.512-1.242s-.065-4.341-5-7.687c0,0-2.289,5.159-10.258,1.846l-2.907-2.327-8.408,13.776-6.335,3.576c-1.386.782-2.766,1.109-3,2.684Z" transform="translate(-476.686 -453.875)" fill="#2f2e41"/>
    </g>
    <path id="Path_105" data-name="Path 105" d="M442.6,256l-4.251,16.232,1.132,26.339,1.877,43.748.053,1.234.212,4.919.977,22.715H421.657l-9.325-63.458-7.371-50.158.774-25.541.041-1.336s37.465-1.629,41.537,3.665S442.6,256,442.6,256Z" transform="translate(-174.555 -99.339)" fill="#2f2e41"/>
    <path id="Path_106" data-name="Path 106" d="M471.749,355.181l-3.551,1.837-13.133,6.8-1.922.994L441.627,348.8l-29.3-40.743L404.96,257.9l.774-25.541c3.315-1.055,5.966-1.486,7.31-.859,6.051,2.83,5.762,21.383,5.762,21.383l3.685,16.37,16.993,29.646,32.264,56.286Z" transform="translate(-174.555 -99.659)" fill="#2f2e41"/>
    <g id="Group_19" data-name="Group 19" transform="translate(162.782 227.984)">
      <path id="Path_107" data-name="Path 107" d="M356.054,448.33c-.27-.825-2.313-.462-2.509-1.2s1.765-1.352,3.269-3.423c.271-.374,1.98-2.728,1.324-3.718-1.242-1.877-9.885,2.8-11.959.174a34.682,34.682,0,0,0-2-3.4c-.54-.732-.886-1.085-1.3-1.075-.587.015-.8.749-1.719,2.079-1.383,1.994-1.882,1.744-2.794,3.378-.677,1.213-.757,1.988-1.244,2.034-.69.065-.976-1.446-1.819-1.5-.861-.06-1.722,1.433-2.149,2.6-.8,2.188-.305,3.861-.2,5.527a13.657,13.657,0,0,1-2.129,7.866L312.268,487.24c3.987-6.029,15.3-22.47,19.863-28.5,1.316-1.741,2.731-3.489,4.908-3.818,2.1-.317,4.646.72,8.206.66.416-.007,1.573-.041,1.854-.655.233-.507-.345-.948-.135-1.424.282-.639,1.55-.365,3.278-.789A9.434,9.434,0,0,0,353,451.493c.215-.128,3.412-2.065,3.054-3.163h0Z" transform="translate(-297.382 -415.782)" fill="#f2f2f2"/>
      <path id="Path_108" data-name="Path 108" d="M296.156,467.447c-.483-.106-.894,1-1.313.885s-.154-1.256-.737-2.592c-.105-.241-.768-1.759-1.443-1.723-1.28.068-1.479,5.659-3.365,5.92a19.752,19.752,0,0,0-2.247,0c-.515.054-.788.122-.9.328-.162.292.138.607.524,1.444.58,1.254.313,1.427.852,2.346.4.682.758.945.639,1.2-.167.357-.991.062-1.263.459s.206,1.259.655,1.8a6.566,6.566,0,0,0,2.657,1.691,7.775,7.775,0,0,1,3.246,3.315l9.16,17.644c-1.809-3.7-6.613-13.994-8.258-17.972a4.639,4.639,0,0,1-.458-3.51c.449-1.12,1.694-2.073,2.692-3.837.116-.206.433-.784.214-1.1-.182-.26-.565-.1-.738-.345-.232-.323.268-.866.558-1.837a5.373,5.373,0,0,0,.2-1.706c0-.142-.029-2.271-.672-2.411h0Z" transform="translate(-286.104 -427.995)" fill="#f2f2f2"/>
      <path id="Path_109" data-name="Path 109" d="M319.832,470.007l.288-2.658.177-.167a4.916,4.916,0,0,0,1.52-2.432c.031-.134.054-.269.078-.407a4.156,4.156,0,0,1,.74-1.932c.294-.393,1.072-1.282,1.874-.971a.963.963,0,0,1,.464.37l.08-.08a2.922,2.922,0,0,1,.823-.579,3.419,3.419,0,0,0,.678-.436c.138-.11.248-.209.341-.292a1.248,1.248,0,0,1,1.135-.429,1.332,1.332,0,0,1,.821.972,6.407,6.407,0,0,1,.321,1.263,2.012,2.012,0,0,0,.047.245c.114.288,1.551.363,2.092.394,1.215.066,2.266.123,2.519.955.181.6-.2,1.244-1.156,1.981a4.341,4.341,0,0,1-.858.505.89.89,0,0,1,.3.638h0c.018.664-.663,1.173-2.024,1.517a4.424,4.424,0,0,1-1.388.172,5.173,5.173,0,0,1-.735-.1.875.875,0,0,1-.192.361,1.315,1.315,0,0,1-1.455.239,10.729,10.729,0,0,1-1.822-.726,4.7,4.7,0,0,0-1.154-.444,2.685,2.685,0,0,0-1.83.78l-1.679,1.26Z" transform="translate(-300.642 -426.249)" fill="#f2f2f2"/>
      <path id="Path_110" data-name="Path 110" d="M319.341,441.818l-2.644.4-.206-.128a4.916,4.916,0,0,0-2.738-.853c-.137,0-.274.016-.414.028a4.156,4.156,0,0,1-2.056-.226c-.455-.185-1.512-.712-1.415-1.567a.963.963,0,0,1,.241-.543l-.1-.057a2.923,2.923,0,0,1-.769-.649,3.419,3.419,0,0,0-.594-.546c-.141-.105-.265-.187-.369-.255a1.248,1.248,0,0,1-.7-.989,1.332,1.332,0,0,1,.732-1.041,6.4,6.4,0,0,1,1.14-.631,2.017,2.017,0,0,0,.225-.108c.25-.184-.042-1.592-.149-2.123-.244-1.192-.456-2.224.285-2.679.53-.326,1.254-.125,2.209.616a4.339,4.339,0,0,1,.706.7.889.889,0,0,1,.542-.448h0c.638-.185,1.3.344,1.98,1.573a4.422,4.422,0,0,1,.518,1.3,5.17,5.17,0,0,1,.093.735.875.875,0,0,1,.4.094,1.315,1.315,0,0,1,.6,1.347,10.729,10.729,0,0,1-.24,1.947,4.7,4.7,0,0,0-.137,1.229c.071.6.572,1.05,1.219,1.573l1.644,1.3h0Z" transform="translate(-295.359 -413.201)" fill="#f2f2f2"/>
      <path id="Path_111" data-name="Path 111" d="M328.881,429.438l.288-2.658.177-.167a4.916,4.916,0,0,0,1.52-2.432c.031-.134.054-.269.078-.407a4.156,4.156,0,0,1,.74-1.932c.294-.393,1.072-1.282,1.874-.971a.963.963,0,0,1,.464.37l.08-.08a2.923,2.923,0,0,1,.823-.579,3.418,3.418,0,0,0,.678-.436c.138-.11.248-.209.341-.292a1.248,1.248,0,0,1,1.135-.429,1.332,1.332,0,0,1,.821.972,6.4,6.4,0,0,1,.321,1.263,2.02,2.02,0,0,0,.047.245c.114.288,1.551.363,2.092.394,1.215.066,2.266.123,2.519.955.181.6-.2,1.244-1.156,1.981a4.336,4.336,0,0,1-.858.505.889.889,0,0,1,.3.638h0c.018.664-.663,1.173-2.023,1.517a4.422,4.422,0,0,1-1.388.172,5.174,5.174,0,0,1-.735-.1.874.874,0,0,1-.192.361,1.315,1.315,0,0,1-1.455.239,10.728,10.728,0,0,1-1.822-.726,4.7,4.7,0,0,0-1.154-.444,2.684,2.684,0,0,0-1.83.78l-1.679,1.26h0Z" transform="translate(-304.543 -408.762)" fill="#f2f2f2"/>
      <path id="Path_112" data-name="Path 112" d="M312.944,479l-.468-.462.008-.657-.008.657-.65-.069c0-.061,0-.2-.006-.427a92.921,92.921,0,0,1,.416-10.663,107.03,107.03,0,0,1,1.8-12.045c.832-4.008,1.7-6.99,2.389-9.387.523-1.808,1.052-3.522,1.568-5.193a101.161,101.161,0,0,0,3.481-13.485,12.9,12.9,0,0,0-.212-5.944A12.221,12.221,0,0,0,319,417.051l1.023-.826a13.557,13.557,0,0,1,2.5,4.738,14.124,14.124,0,0,1,.246,6.528,102.137,102.137,0,0,1-3.522,13.654c-.513,1.664-1.04,3.371-1.561,5.172-.687,2.375-1.543,5.331-2.365,9.287a105.723,105.723,0,0,0-1.776,11.9,91.457,91.457,0,0,0-.409,10.517c.013.643.016.778-.191.985h0Z" transform="translate(-297.181 -407.394)" fill="#f2f2f2"/>
      <path id="Path_113" data-name="Path 113" d="M317.026,411.873c-.053-.012-.106-.025-.159-.041a4.2,4.2,0,0,1-2.573-2.613,9.186,9.186,0,0,1-.5-2.794,16.412,16.412,0,0,1,0-2.78c.077-.954.179-1.338.439-1.639a2.005,2.005,0,0,1,1.088-.624.743.743,0,0,1,.134-.367c.338-.486.9-.286,1.21-.182a3.23,3.23,0,0,0,.564.163,1.651,1.651,0,0,0,.852-.09,3.654,3.654,0,0,1,1.167-.183,3.917,3.917,0,0,1,1.982.61c1.284.771,1.727,2,2.24,3.427a10.033,10.033,0,0,1,.519,2.648,2.938,2.938,0,0,1-.213,1.633c-.294.577-.745.845-1.864,1.408a17.621,17.621,0,0,1-2.236,1.037,4.937,4.937,0,0,1-2.648.387h0Z" transform="translate(-298.014 -400.704)" fill="#f2f2f2"/>
    </g>
    <path id="Path_114" data-name="Path 114" d="M331.726,528.427h0a.478.478,0,0,1-.478.478H0v-.956H331.248a.478.478,0,0,1,.478.478Z" transform="translate(0 -227.568)" fill="#e6e6e6"/>
    <path id="Path_115" data-name="Path 115" d="M152.1,65.186l20.361,9.773s21.583,63.934,21.583,67.192,6.108,5.294,2.443,8.959,6.822,6.769,1.171,9.7-40.9,18.941-44.819,17.5c-10.81-3.983.458-18.617.458-18.617s-8.12-6.54-6.9-9.8-7.33-65.563-7.33-65.563L152.1,65.186Z" transform="translate(-59.943 -28.098)" fill="#9eb3c9"/>
    <path id="Path_116" data-name="Path 116" d="M177.587,24.878l2.305,4.611s2.305-8.3,5.994-10.143,4.15-4.611,4.15-4.611,4.611,5.994,7.838,4.611,4.611-2.305.922-7.838-2.766-2.766-2.766-2.766S192.8,4.13,193.262,5.514,190.5,1.825,190.5,3.208s-2.305-2.766-2.305-1.383-9.682-3.227-8.3-1.383-8.3-3.688-12.91,3.688-11,6.013-8.729,10.614,1.352,17.05,1.352,17.05h6.359s6.551-12.449,11.623-6.916Z" transform="translate(-68.009 0)" fill="#2f2e41"/>
    <path id="Path_117" data-name="Path 117" d="M420.013,108.413l.373-.105,18.359-5.188,14.66,19.954-9.773,41.537,3.665,16.7s-29.727-7.737-41.537-1.222c0,0-.814-3.713,0-5.522s2.036-9.334.814-12.7,2.443-19.245,2.443-19.245-1.222-10.588,4.072-15.882,6.923-18.325,6.923-18.325Z" transform="translate(-174.743 -44.449)" fill="#7892bc"/>
    <path id="Path_118" data-name="Path 118" d="M344.174,177.2l-64.513-32.061a2.612,2.612,0,0,1-.834-.653l-10.066-11.863a2.63,2.63,0,0,1-.368-2.829l18.875-39.6a2.626,2.626,0,0,1,3.855-1.035l45.5,31.208a2.622,2.622,0,0,1,1.038,2.891L328.421,155.4a2.231,2.231,0,0,0,.8,2.387L347.5,171.5a2.639,2.639,0,0,1,.809,3.2l-.578,1.252a2.621,2.621,0,0,1-3.553,1.251Z" transform="translate(-115.579 -38.233)" fill="#7892bc"/>
    <path id="Path_119" data-name="Path 119" d="M346.072,171.407l-17.959-14.941a1.436,1.436,0,0,1-.436-1.552l10.234-29.943a1.835,1.835,0,0,0-.7-2.1L294.578,93.68a1.831,1.831,0,0,0-2.675.7l-17.975,36.5a1.8,1.8,0,0,0,.049,1.706,1.132,1.132,0,0,0,.134.208l9.04,11.932a1.887,1.887,0,0,0,.66.542l60.294,29.194a1.829,1.829,0,0,0,2.093-.354c.041-.045.081-.085.122-.134a1.828,1.828,0,0,0-.248-2.566Z" transform="translate(-117.992 -40.242)" fill="#fff"/>
    <path id="Path_120" data-name="Path 120" d="M286.2,132.753a.407.407,0,0,0,.364-.224l14.615-29.036a.407.407,0,1,0-.727-.366l-14.615,29.036a.407.407,0,0,0,.363.59Z" transform="translate(-123.187 -44.355)" fill="#7892bc"/>
    <path id="Path_121" data-name="Path 121" d="M299.8,141.342a.407.407,0,0,0,.364-.224l14.615-29.036a.407.407,0,1,0-.727-.366l-14.615,29.036a.407.407,0,0,0,.363.59Z" transform="translate(-129.049 -48.058)" fill="#7892bc"/>
    <path id="Path_122" data-name="Path 122" d="M311.248,148.5a.407.407,0,0,0,.364-.224l14.615-29.036a.407.407,0,1,0-.727-.366l-14.615,29.036a.407.407,0,0,0,.363.59Z" transform="translate(-133.985 -51.143)" fill="#7892bc"/>
    <path id="uuid-03f01c0a-1974-4ec8-8b69-52a915a70377-174" d="M250.638,163.748c5.053-1.493,9.92-.1,10.869,3.12s-2.377,7.032-7.432,8.525a13.187,13.187,0,0,1-6.216.389l-21.491,6.055-2.626-10.145,21.465-4.892a13.188,13.188,0,0,1,5.431-3.052Z" transform="translate(-96.442 -70.324)" fill="#ffb6b6"/>
    <path id="Path_123" data-name="Path 123" d="M184.318,95.862l-3.368,40.3,30.171.324,5.856,9.016s-36.569,21.174-47.55,10.355-15.867-56.348-6.1-64.142,21,4.15,21,4.15Z" transform="translate(-68.134 -38.394)" fill="#9eb3c9"/>
    <g id="Group_20" data-name="Group 20" transform="translate(205.953 71.646)">
      <path id="uuid-7eb47ac4-3db4-4d62-bd0a-b38893e38622-175" d="M371.05,219.677c-5.254-.4-9.309-3.428-9.057-6.771s4.716-5.733,9.972-5.336a13.187,13.187,0,0,1,5.95,1.84l22.241,1.958-1.141,10.418-21.8-3.036a13.187,13.187,0,0,1-6.16.928Z" transform="translate(-361.982 -161.098)" fill="#a0616a"/>
      <path id="Path_124" data-name="Path 124" d="M450.207,135.565l-3.634,45.395s-1.145,9.783-16.38,9.169-35.472-5.423-35.472-5.423l.731-10.594,17.03.925s7.8-2.342,9.439-1.133,1,2.761,2.45.8.609-3.093,2.056-1.52,1.877,4.421,2.5.832,2.176-2.949,2.176-2.949L430.19,138s3.7-15.993,12.292-11.173S450.207,135.565,450.207,135.565Z" transform="translate(-376.094 -125.924)" fill="#7892bc"/>
    </g>
  </g>
</svg>
