<svg id="undraw_join_re_w1lh" xmlns="http://www.w3.org/2000/svg" width="285.5" height="297.156" viewBox="0 0 285.5 297.156">
  <path id="Path_70" data-name="Path 70" d="M374.064,392.5l-.006.134,6.7,70.878H331.85l-6.34-43.531-2.79,42.415-50.228-.558,5.335-55.687,4.537-25.812v-.006l.681-3.884H372.73l.117,1.406Z" transform="translate(-120.415 -166.355)" fill="#2f2e41"/>
  <path id="Path_71" data-name="Path 71" d="M217.282,351.393c5.18.944,10.582-4.89,12.065-13.03a20.709,20.709,0,0,0-.435-9.77l.794-4.692,13.329-63.125s24.545-49.1,24.544-57.622-7.1-12.7-7.1-12.7l-9.607.09-30.127,73.583L215.319,318.5l-.878,7.46a20.707,20.707,0,0,0-3.853,8.989c-1.483,8.14,1.514,15.5,6.694,16.448Z" transform="translate(-92.892 -84.161)" fill="#ffb6b6"/>
  <path id="Path_72" data-name="Path 72" d="M366.395,119.6l-8.93-20.649-29.021,5.023-1.953,24.295Z" transform="translate(-144.278 -43.726)" fill="#ffb6b6"/>
  <path id="Path_73" data-name="Path 73" d="M366.395,119.6l-8.93-20.649-29.021,5.023-1.953,24.295Z" transform="translate(-144.278 -43.726)" opacity="0.1"/>
  <path id="Path_74" data-name="Path 74" d="M386.374,166.19s-20.649-38.508-24.556-42.415c-1.739-1.739-4.473-1.763-6.972-1.256L326.1,112.613l-9.743-5.474-.642,10.415L283.727,123.3c.178-6.352,1.074-8.767,1.074-8.767L273.08,128.24,250.2,139.4l.013.1a9.1,9.1,0,0,0-4.477,3.248c-4.465,6.139-16.743,80.924-16.743,80.924l26.23,5.581,3.57-22.4,2.569,20.169,1.953,37.671s35.718,30.7,53.019,19.533,38.509-10.6,38.509-10.6l.529-17.462c.377-.6.587-.955.587-.955l-.558-61.94V176.785c4.252,5.923,9.382,11.017,15.348,13.4,19.533,7.813,15.627-24,15.627-24Z" transform="translate(-101.192 -47.345)" fill="#7892bc"/>
  <circle id="Ellipse_9" data-name="Ellipse 9" cx="26.698" cy="26.698" r="26.698" transform="translate(168.945 10.482)" fill="#ffb6b6"/>
  <path id="Path_75" data-name="Path 75" d="M343.843,44.725s2.322-8.126,7.545-7.545,6.384-4.063,5.224-6.384-3.482-13.93-3.482-13.93,1.161-8.126-5.8-9.286-9.286-2.322-10.447-4.643S318.305-1.707,312.5,1.776s-10.447,10.164-14.51,12.047-7.545,5.365-5.224,11.169,5.689,17.155,5.689,17.155,5.919-2.065,7.08,1.417-3.482-1.161,2.322-10.447,5.8-18.573,15.09-15.09,19.734,2.322,18.573,9.286,2.322,17.412,2.322,17.412Z" transform="translate(-129.046 0)" fill="#2f2e41"/>
  <g id="Group_12" data-name="Group 12" transform="translate(0 127.873)">
    <path id="Path_76" data-name="Path 76" d="M213.163,357.631H10.4A10.411,10.411,0,0,1,0,347.232V239.524a10.411,10.411,0,0,1,10.4-10.4H213.163a10.411,10.411,0,0,1,10.4,10.4V347.232a10.411,10.411,0,0,1-10.4,10.4Z" transform="translate(0 -229.125)" fill="#fff"/>
    <path id="Path_77" data-name="Path 77" d="M213.163,357.631H10.4A10.411,10.411,0,0,1,0,347.232V239.524a10.411,10.411,0,0,1,10.4-10.4H213.163a10.411,10.411,0,0,1,10.4,10.4V347.232a10.411,10.411,0,0,1-10.4,10.4ZM10.4,230.861a8.672,8.672,0,0,0-8.663,8.663V347.232a8.672,8.672,0,0,0,8.663,8.663H213.163a8.672,8.672,0,0,0,8.663-8.663V239.524a8.672,8.672,0,0,0-8.663-8.663H10.4Z" transform="translate(0 -229.125)" fill="#3f3d56"/>
    <circle id="Ellipse_10" data-name="Ellipse 10" cx="2.605" cy="2.605" r="2.605" transform="translate(194.909 7.814)" fill="#3f3d56"/>
    <circle id="Ellipse_11" data-name="Ellipse 11" cx="2.605" cy="2.605" r="2.605" transform="translate(201.856 7.814)" fill="#3f3d56"/>
    <circle id="Ellipse_12" data-name="Ellipse 12" cx="2.605" cy="2.605" r="2.605" transform="translate(208.802 7.814)" fill="#3f3d56"/>
    <path id="Path_78" data-name="Path 78" d="M25.417,323.251a1.3,1.3,0,0,0-1.3,1.3,1.314,1.314,0,0,0,1.3,1.3h194.91a1.3,1.3,0,0,0,1.3-1.3,1.314,1.314,0,0,0-1.3-1.3Z" transform="translate(-10.657 -270.72)" fill="#e6e6e6"/>
    <path id="Path_79" data-name="Path 79" d="M195.671,322.473v3.473H25.074a1.749,1.749,0,0,1-1.737-1.737,1.742,1.742,0,0,1,1.737-1.737Z" transform="translate(-10.313 -270.376)" fill="#7892bc"/>
    <path id="Path_80" data-name="Path 80" d="M355.3,305.3H337.934a3.473,3.473,0,0,1,0-6.946H355.3a3.473,3.473,0,0,1,0,6.946Z" transform="translate(-147.8 -259.72)" fill="#e6e6e6"/>
    <path id="Path_81" data-name="Path 81" d="M103.723,272.633H26.032a3.473,3.473,0,1,1,0-6.946h77.691a3.473,3.473,0,1,1,0,6.946Z" transform="translate(-9.969 -245.282)" fill="#e6e6e6"/>
    <path id="Path_82" data-name="Path 82" d="M25.417,393.262a1.3,1.3,0,0,0-1.3,1.3,1.314,1.314,0,0,0,1.3,1.3h194.91a1.3,1.3,0,0,0,1.3-1.3,1.315,1.315,0,0,0-1.3-1.3Z" transform="translate(-10.657 -301.658)" fill="#e6e6e6"/>
    <path id="Path_83" data-name="Path 83" d="M128.813,392.484v3.473H25.074a1.749,1.749,0,0,1-1.737-1.737,1.742,1.742,0,0,1,1.737-1.737Z" transform="translate(-10.313 -301.314)" fill="#7892bc"/>
    <path id="Path_84" data-name="Path 84" d="M355.3,375.316H337.934a3.473,3.473,0,0,1,0-6.946H355.3a3.473,3.473,0,0,1,0,6.946Z" transform="translate(-147.8 -290.658)" fill="#e6e6e6"/>
  </g>
  <g id="Group_13" data-name="Group 13" transform="translate(210.707 12.692)">
    <ellipse id="Ellipse_13" data-name="Ellipse 13" cx="27.194" cy="26.621" rx="27.194" ry="26.621" fill="#7892bc"/>
    <path id="Path_85" data-name="Path 85" d="M426.878,45.889,416.017,65.666q-3.461-6.115-6.915-12.235a1.258,1.258,0,0,0-2.171,1.269c2.681,4.722,5.335,9.46,8.016,14.183a1.268,1.268,0,0,0,2.171,0l11.931-21.725c.779-1.419-1.391-2.689-2.171-1.269Z" transform="translate(-390.455 -32.696)" fill="#fff"/>
  </g>
  <path id="Path_86" data-name="Path 86" d="M452.249,161.6l-27.094-12.961s-1.088-8.675-6.169-11.769c-.864-2.061-1.858-4.325-2.76-6.119-2.232-4.436,1.116-12.808-1.674-12.808s-6.915,8.8-6.7,11.162c.168,1.81,1.663,4.97,1.972,7.736a23.871,23.871,0,0,0-7.953,5.234,5.875,5.875,0,0,0-1.532,5.866c1.769,6.054,6.19,18.556,12.535,18.556,8.371,0,10.6-1.674,10.6-1.674s17.3,21.766,30.137,23.44-1.369-26.664-1.369-26.664Z" transform="translate(-176.808 -52.122)" fill="#ffb6b6"/>
</svg>
