<svg xmlns="http://www.w3.org/2000/svg" xmlns:xlink="http://www.w3.org/1999/xlink" width="972.897" height="547.255" viewBox="0 0 972.897 547.255">
  <defs>
    <clipPath id="clip-path">
      <rect id="Rectangle_1" data-name="Rectangle 1" width="972.897" height="547.255" fill="#f4f9ff" stroke="#707070" stroke-width="1"/>
    </clipPath>
  </defs>
  <g id="HeroImg" clip-path="url(#clip-path)">
    <g id="undraw_for_sale_re_egkk" transform="translate(0 46.564)">
      <path id="Path_1" data-name="Path 1" d="M1544.342,904.561H1152.517c-10.658,0-19.329-9.592-19.329-21.382V591.8a12.006,12.006,0,0,1,6.384-10.853l148.064-89.634a58.868,58.868,0,0,1,52.239-.053l217.369,89.678a12.006,12.006,0,0,1,6.423,10.871V883.179C1563.669,894.969,1555,904.561,1544.342,904.561Z" transform="translate(-657.924 -451.309)" fill="#9eb3c9"/>
      <path id="Path_2" data-name="Path 2" d="M1486.64,1026.537H1150.173c-9.19,0-16.667-6.771-16.667-15.093V807.767a8.464,8.464,0,0,1,5.554-7.734l156.666-62.668a60.993,60.993,0,0,1,44.82-.022l157.2,62.694a8.464,8.464,0,0,1,5.563,7.737v203.669C1503.307,1019.767,1495.83,1026.537,1486.64,1026.537Z" transform="translate(-658.082 -573.6)" fill="#7892bc"/>
      <circle id="Ellipse_1" data-name="Ellipse 1" cx="49.301" cy="49.301" r="49.301" transform="translate(242.112 140.443)" fill="#3f3d56"/>
      <ellipse id="Ellipse_2" data-name="Ellipse 2" cx="62.442" cy="78.159" rx="62.442" ry="78.159" transform="translate(249.582 212.924)" fill="#9eb3c9"/>
      <path id="Path_3" data-name="Path 3" d="M612.941,543.432h.172L616.2,720.466h-6.518Z" transform="translate(-300.746 -268.066)" fill="#ccc"/>
      <path id="Path_4" data-name="Path 4" d="M821.648,1192.266h0a1.544,1.544,0,0,1-.647,2.085l-8.956,4.715-1.439-2.732,8.956-4.715A1.544,1.544,0,0,1,821.648,1192.266Z" transform="translate(-498.801 -799.698)" fill="#ccc"/>
      <ellipse id="Ellipse_3" data-name="Ellipse 3" cx="62.442" cy="78.159" rx="62.442" ry="78.159" transform="translate(70.061 212.924)" fill="#9eb3c9"/>
      <path id="Path_5" data-name="Path 5" d="M464.574,1081.9h0a1.544,1.544,0,0,0-2.086-.647l-6.252,3.292L454.1,961.772h-.171l-3.259,177.034h6.518L456.3,1088l7.63-4.017A1.544,1.544,0,0,0,464.574,1081.9Z" transform="translate(-321.248 -686.406)" fill="#ccc"/>
      <path id="Path_6" data-name="Path 6" d="M556.537,637.32c43.7,0,79.215,82.337,79.215,137.032s-35.424,99.037-79.121,99.037-79.121-44.339-79.121-99.037S512.839,637.32,556.537,637.32Z" transform="translate(-334.49 -526.36)" fill="#7892bc"/>
      <path id="Path_7" data-name="Path 7" d="M643.558,1020.669a1.956,1.956,0,0,0-2.642-.82l-7.922,4.171-2.712-155.568h-.217l-4.13,224.322h8.26l-1.123-64.372,9.668-5.09a1.956,1.956,0,0,0,.819-2.643Z" transform="translate(-407.705 -640.373)" fill="#3f3d56"/>
      <path id="Path_8" data-name="Path 8" d="M1271.449,1005.389V984.324a10.359,10.359,0,0,0-10.36-10.36h-53.156a10.359,10.359,0,0,0-10.359,10.359v21.065Z" transform="translate(-689.685 -692.42)" fill="#fff"/>
      <path id="Path_9" data-name="Path 9" d="M1197.573,1042.508v32.643a10.359,10.359,0,0,0,10.359,10.359h53.157a10.359,10.359,0,0,0,10.359-10.359v-32.643Z" transform="translate(-689.685 -726.232)" fill="#fff"/>
      <path id="Path_10" data-name="Path 10" d="M1468.95,816.168l-159.594-58.5a43.649,43.649,0,0,0-30.047,0l-159.593,58.5a22.258,22.258,0,0,1-29.918-20.9h0a22.258,22.258,0,0,1,14.6-20.9l174.915-64.12a43.649,43.649,0,0,1,30.047,0l174.915,64.12a22.258,22.258,0,0,1,14.6,20.9h0a22.258,22.258,0,0,1-29.92,20.9Z" transform="translate(-636.522 -561.021)" fill="#3f3d56"/>
      <path id="Path_11" data-name="Path 11" d="M1486.157,1180.329H1443.5a17.093,17.093,0,0,1-17.074-17.074v-103.3a17.093,17.093,0,0,1,17.074-17.074h42.654a17.093,17.093,0,0,1,17.074,17.074v103.3a17.093,17.093,0,0,1-17.074,17.074ZM1443.5,1045.81a14.163,14.163,0,0,0-14.147,14.147v103.3A14.164,14.164,0,0,0,1443.5,1177.4h42.654a14.163,14.163,0,0,0,14.147-14.147v-103.3a14.163,14.163,0,0,0-14.147-14.147Z" transform="translate(-802.576 -726.417)" fill="#3f3d56"/>
      <path id="Path_12" data-name="Path 12" d="M1492.608,581.938a30.867,30.867,0,0,0-61.488,0Z" transform="translate(-804.889 -485.172)" fill="#fff"/>
      <path id="Path_13" data-name="Path 13" d="M1430.892,615.836a30.862,30.862,0,1,0,61.724,0Z" transform="translate(-804.777 -515.762)" fill="#fff"/>
      <path id="Path_14" data-name="Path 14" d="M1483.419,665.043H1431.6a9.309,9.309,0,1,1,0-18.617h51.823a9.309,9.309,0,1,1,0,18.617Z" transform="translate(-800.533 -530.851)" fill="#ccc"/>
      <path id="Path_15" data-name="Path 15" d="M1190.549,1106.575a8.333,8.333,0,1,0,0,16.666h72.772a8.333,8.333,0,1,0,0-16.666Z" transform="translate(-682.11 -757.835)" fill="#ccc"/>
      <path id="Path_16" data-name="Path 16" d="M1644.741,1042.508v32.643a10.359,10.359,0,0,0,10.359,10.359h53.157a10.359,10.359,0,0,0,10.359-10.359v-32.643Z" transform="translate(-910.265 -726.232)" fill="#fff"/>
      <path id="Path_17" data-name="Path 17" d="M1718.616,1005.389V984.324a10.359,10.359,0,0,0-10.359-10.359H1655.1a10.359,10.359,0,0,0-10.359,10.359v21.065Z" transform="translate(-910.264 -692.421)" fill="#fff"/>
      <circle id="Ellipse_4" data-name="Ellipse 4" cx="6.064" cy="6.064" r="6.064" transform="translate(681.55 376.369)" fill="#3f3d56"/>
      <path id="Path_18" data-name="Path 18" d="M931.737,725.565,907.85,688.409l1.105-.711,22.666,35.259,18.47-35.208,1.163.61Z" transform="translate(-447.826 -339.23)" fill="#3f3d56"/>
      <path id="Path_19" data-name="Path 19" d="M1092.395,1070.614h-56.824v-.985a12.153,12.153,0,0,0-12.153-12.153h0a12.153,12.153,0,0,0-12.153,12.153v.985h-5.584a12.153,12.153,0,1,0,0,24.307h5.584v91.844c24.216-.485-.175.49,24.306,0V1094.92h56.824a12.153,12.153,0,0,0,0-24.306Z" transform="translate(-589.033 -733.615)" fill="#3f3d56"/>
      <circle id="Ellipse_5" data-name="Ellipse 5" cx="4.599" cy="4.599" r="4.599" transform="translate(429.457 344.224)" fill="#fff"/>
      <path id="Path_20" data-name="Path 20" d="M1142.628,1192.132h-52.546a9.372,9.372,0,0,1-9.361-9.361V1165.7a9.372,9.372,0,0,1,9.361-9.361h52.545a9.372,9.372,0,0,1,9.361,9.361v17.071a9.372,9.372,0,0,1-9.36,9.36Z" transform="translate(-632.044 -782.383)" fill="#ccc"/>
      <rect id="Rectangle_3" data-name="Rectangle 3" width="40.73" height="7.226" rx="3.613" transform="translate(463.618 387.582)" fill="#236bae"/>
      <path id="Path_21" data-name="Path 21" d="M1167.4,1313.087H196.017a.754.754,0,0,1,0-1.509h971.388a.754.754,0,1,1,0,1.509Z" transform="translate(-195.262 -858.959)" fill="none"/>
      <path id="Path_22" data-name="Path 22" d="M1708.451,1123.267h-72.772a9.309,9.309,0,1,1,0-18.617h72.772a9.309,9.309,0,1,1,0,18.618Z" transform="translate(-901.203 -756.885)" fill="#ccc"/>
      <path id="Path_23" data-name="Path 23" d="M1751.426,568.553s-17.648-1.252-53.661-2.927c-42.929-75.125-182.45-93.234-182.45-147.284H1686.8a64.693,64.693,0,0,1,64.693,64.693Z" transform="translate(-846.422 -418.342)" fill="#3f3d56"/>
      <path id="Path_24" data-name="Path 24" d="M1686.328,457.319a1.465,1.465,0,0,0-1.463,1.463v48.861a1.465,1.465,0,0,0,1.463,1.464h30.436a1.465,1.465,0,0,0,1.464-1.464V458.782a1.465,1.465,0,0,0-1.464-1.463Z" transform="translate(-930.058 -437.568)" fill="#f2f2f2"/>
      <path id="Path_25" data-name="Path 25" d="M1485.478,564.612,1325.885,468.42a43.65,43.65,0,0,0-30.047,0l-159.594,96.192a22.258,22.258,0,0,1-29.918-20.9h0a22.258,22.258,0,0,1,14.6-20.9l174.915-101.807a43.649,43.649,0,0,1,30.047,0L1500.8,522.816a22.258,22.258,0,0,1,14.6,20.9h0a22.258,22.258,0,0,1-29.919,20.9Z" transform="translate(-644.675 -418.341)" fill="#3f3d56"/>
    </g>
  </g>
</svg>
