<svg xmlns="http://www.w3.org/2000/svg" width="338.621" height="247.96" viewBox="0 0 338.621 247.96">
  <g id="HeroImgMobile" transform="translate(-188.174 593.117)">
    <g id="undraw_for_sale_re_egkk" transform="translate(169.11 -711.886)">
      <path id="Path_2" data-name="Path 2" d="M1426.852,967.955h-279.5c-7.634,0-13.844-5.419-13.844-12.08V792.859a6.8,6.8,0,0,1,4.613-6.19l130.141-50.158a52.455,52.455,0,0,1,37.231-.018l130.583,50.179a6.8,6.8,0,0,1,4.621,6.192v163.01C1440.7,962.536,1434.485,967.955,1426.852,967.955Z" transform="translate(-1096.717 -602.006)" fill="#7892bc"/>
      <path id="Path_8" data-name="Path 8" d="M1256.7,999.115v-16.86a8.291,8.291,0,0,0-8.291-8.292h-42.545a8.291,8.291,0,0,0-8.291,8.291v16.86Z" transform="translate(-1132.615 -746.338)" fill="#fff"/>
      <path id="Path_9" data-name="Path 9" d="M1197.573,1042.508v26.126a8.291,8.291,0,0,0,8.291,8.291h42.545a8.291,8.291,0,0,0,8.291-8.291v-26.126Z" transform="translate(-1132.614 -786.729)" fill="#fff"/>
      <path id="Path_10" data-name="Path 10" d="M1403.653,794.492l-132.109-46.824a37.3,37.3,0,0,0-24.872,0l-132.107,46.824a18.956,18.956,0,0,1-16.892-2.122,17.647,17.647,0,0,1-7.874-14.6h0a17.853,17.853,0,0,1,12.083-16.726l144.791-51.319a37.3,37.3,0,0,1,24.872,0l144.792,51.319a17.853,17.853,0,0,1,12.083,16.726h0a17.649,17.649,0,0,1-7.874,14.6A18.957,18.957,0,0,1,1403.653,794.492Z" transform="translate(-1070.734 -588.817)" fill="#3f3d56"/>
      <path id="Path_11" data-name="Path 11" d="M1474.233,1152.89h-34.139a13.681,13.681,0,0,1-13.666-13.665v-82.677a13.681,13.681,0,0,1,13.666-13.665h34.139a13.681,13.681,0,0,1,13.666,13.665v82.677a13.681,13.681,0,0,1-13.666,13.665Zm-34.139-107.664a11.336,11.336,0,0,0-11.323,11.323v82.676a11.336,11.336,0,0,0,11.323,11.323h34.139a11.336,11.336,0,0,0,11.323-11.323v-82.677a11.336,11.336,0,0,0-11.323-11.323Z" transform="translate(-1265.384 -786.161)" fill="#3f3d56"/>
      <path id="Path_15" data-name="Path 15" d="M1188.885,1106.575a6.669,6.669,0,1,0,0,13.339h58.244a6.669,6.669,0,1,0,0-13.339Z" transform="translate(-1125.671 -824.717)" fill="#ccc"/>
      <path id="Path_16" data-name="Path 16" d="M1644.742,1042.508v26.126a8.291,8.291,0,0,0,8.291,8.291h42.545a8.291,8.291,0,0,0,8.291-8.291v-26.126Z" transform="translate(-1392.115 -786.729)" fill="#fff"/>
      <path id="Path_17" data-name="Path 17" d="M1703.867,999.116v-16.86a8.291,8.291,0,0,0-8.291-8.291h-42.546a8.291,8.291,0,0,0-8.291,8.291v16.86Z" transform="translate(-1392.114 -746.339)" fill="#fff"/>
      <circle id="Ellipse_4" data-name="Ellipse 4" cx="4.854" cy="4.854" r="4.854" transform="translate(207.857 304.666)" fill="#3f3d56"/>
      <path id="Path_22" data-name="Path 22" d="M1692.065,1119.55h-58.244a7.45,7.45,0,1,1,0-14.9h58.244a7.45,7.45,0,0,1,0,14.9Z" transform="translate(-1381.078 -823.568)" fill="#ccc"/>
    </g>
  </g>
</svg>
